<?xml version="1.0" encoding="iso-8859-1"?>
<!-- Uploaded to: SVG Repo, www.svgrepo.com, Generator: SVG Repo Mixer Tools -->
<svg fill="#000000" height="800px" width="800px" version="1.1" id="Layer_1" xmlns="http://www.w3.org/2000/svg" xmlns:xlink="http://www.w3.org/1999/xlink" 
	 viewBox="0 0 512 512" xml:space="preserve">
<g>
	<g>
		<path d="M256.017,414.654h-0.137c-5.766,0-10.442,4.675-10.442,10.442c0,5.767,4.676,10.442,10.442,10.442h0.137
			c5.766,0,10.442-4.675,10.442-10.442C266.459,419.329,261.783,414.654,256.017,414.654z"/>
	</g>
</g>
<g>
	<g>
		<path d="M255.88,414.654h-0.137c-5.766,0-10.442,4.675-10.442,10.442c0,5.767,4.676,10.442,10.442,10.442h0.137
			c5.766,0,10.442-4.675,10.442-10.442C266.322,419.329,261.646,414.654,255.88,414.654z"/>
	</g>
</g>
<g>
	<g>
		<path d="M10.579,485.376h-0.137C4.676,485.376,0,490.051,0,495.818c0,5.767,4.676,10.442,10.442,10.442h0.137
			c5.766,0,10.442-4.675,10.442-10.442C21.021,490.051,16.345,485.376,10.579,485.376z"/>
	</g>
</g>
<g>
	<g>
		<path d="M501.216,485.375h-0.137c-5.766,0-10.442,4.675-10.442,10.442c0,5.767,4.676,10.442,10.442,10.442h0.137
			c5.766,0,10.442-4.675,10.442-10.442C511.658,490.049,506.982,485.375,501.216,485.375z"/>
	</g>
</g>
<g>
	<g>
		<path d="M293.911,206.575c-6.435,0-11.672,5.236-11.672,11.672c0,6.435,5.237,11.671,11.672,11.671
			c6.435,0,11.67-5.236,11.671-11.671C305.582,211.81,300.346,206.575,293.911,206.575z"/>
	</g>
</g>
<g>
	<g>
		<path d="M217.747,206.575c-6.435,0-11.671,5.236-11.671,11.672c0,6.435,5.236,11.671,11.671,11.671
			c6.435,0,11.672-5.236,11.672-11.671C229.419,211.81,224.182,206.575,217.747,206.575z"/>
	</g>
</g>
<g>
	<g>
		<path d="M266.077,255.772h-20.408c-5.766,0-10.442,4.675-10.442,10.442c0,11.384,9.262,20.646,20.646,20.646
			s20.645-9.261,20.646-20.646C276.519,260.447,271.843,255.772,266.077,255.772z"/>
	</g>
</g>
<g>
	<g>
		<path d="M78.652,439.878l-24.366-24.365l8.122-8.123c4.078-4.078,4.078-10.69,0-14.767c-4.079-4.078-10.688-4.078-14.768,0
			l-31.011,31.012c-4.078,4.078-4.078,10.69,0,14.767c2.039,2.039,4.711,3.058,7.384,3.058s5.344-1.02,7.384-3.058l8.121-8.122
			l24.366,24.365c2.039,2.039,4.711,3.058,7.384,3.058c2.672,0,5.344-1.02,7.383-3.058
			C82.731,450.567,82.731,443.955,78.652,439.878z"/>
	</g>
</g>
<g>
	<g>
		<path d="M508.942,128.027l-31.011-31.012c-4.077-4.078-10.686-4.078-14.768,0c-4.078,4.078-4.078,10.689,0,14.767l8.122,8.123
			l-24.366,24.365c-4.078,4.078-4.078,10.69,0,14.767c2.039,2.039,4.711,3.058,7.384,3.058s5.344-1.02,7.384-3.058l24.366-24.365
			l8.121,8.122c2.039,2.039,4.711,3.058,7.384,3.058s5.344-1.02,7.384-3.058C513.02,138.716,513.02,132.104,508.942,128.027z"/>
	</g>
</g>
<g>
	<g>
		<path d="M488.736,280.713h-93c-5.766,0-10.442,4.675-10.442,10.442v56.404c0,5.767,4.676,10.442,10.442,10.442h23.528v127.375
			h-9.899v-70.604c0-20.355-12.284-39.687-29.87-47.015l-67.203-28c-2.389-0.995-3.933-3.311-3.933-5.901v-16.259l27.295-15.65
			c0.19-0.11,0.377-0.224,0.56-0.346c13.667-9.025,22.64-25.075,24.005-42.935c0.021-0.264,0.03-0.53,0.03-0.796v-8.669
			c13.56-4.411,23.389-17.171,23.389-32.183s-9.83-27.774-23.39-32.184v-7.496h12.907c7.849,0,14.234-6.385,14.234-14.234v-21.24
			c0-6.864-4.884-12.609-11.358-13.943c-3.81-26.743-16.373-51.493-35.954-70.493c-14.032-13.615-31.022-23.632-49.535-29.267
			v-7.711c0-8.11-6.385-14.708-14.236-14.708h-40.963c-7.85,0-14.236,6.598-14.236,14.708v7.114
			c-19.303,5.507-36.99,15.729-51.556,29.864c-19.731,19.144-32.335,44.123-36.041,71.102c-5.397,2.025-9.248,7.237-9.248,13.334
			v21.24c0,7.849,6.385,14.234,14.234,14.234h12.909v7.496c-13.56,4.411-23.389,17.171-23.389,32.183s9.829,27.773,23.389,32.183
			v8.669c0,0.265,0.01,0.531,0.03,0.796c1.371,17.933,10.282,33.983,23.837,42.935c0.187,0.124,0.377,0.241,0.572,0.352
			l27.451,15.693v16.21c0,2.589-1.544,4.905-3.934,5.901l-67.203,28.001c-17.587,7.328-29.87,26.662-29.87,47.014v70.604H44.361
			c-5.766,0-10.442,4.675-10.442,10.442c0,5.767,4.676,10.442,10.442,10.442h422.937c5.766,0,10.442-4.675,10.442-10.442
			c0-5.767-4.676-10.442-10.442-10.442h-2.088V358.001h23.527c5.766,0,10.442-4.675,10.442-10.442v-56.404
			C499.178,285.388,494.502,280.713,488.736,280.713z M145.151,156.452v-8.154c4.524-0.927,8.01-4.786,8.315-9.564
			c1.607-25.158,12.485-48.711,30.634-66.32c13.795-13.385,30.948-22.538,49.607-26.469c4.831-1.018,8.289-5.281,8.289-10.217
			v-9.103h27.665v9.549c0,4.865,3.359,9.085,8.1,10.176c17.935,4.128,34.455,13.141,47.775,26.065
			c18.147,17.608,29.026,41.161,30.633,66.32c0.349,5.469,4.866,9.734,10.338,9.776v7.942H145.151z M186.529,284.002
			c-7.979-5.403-13.276-15.283-14.237-26.554v-17.042c0-5.767-4.676-10.442-10.442-10.442c-7.139,0-12.947-5.809-12.947-12.947
			s5.809-12.947,12.947-12.947c5.766,0,10.442-4.675,10.442-10.442v-16.291h167.072v16.291c0,5.767,4.676,10.442,10.442,10.442
			c7.139,0,12.947,5.809,12.947,12.947s-5.808,12.947-12.947,12.947c-5.766,0-10.442,4.675-10.442,10.442v17.04
			c-0.948,11.042-6.439,21.162-14.411,26.559l-56.062,32.147c-0.19,0.11-0.377,0.224-0.56,0.346c-7.829,5.17-17.174,5.17-25.003,0
			c-0.187-0.123-0.377-0.241-0.572-0.352L186.529,284.002z M287.497,334.489c-7.49,9.91-19.068,15.746-31.617,15.746
			c-12.611,0-24.229-5.882-31.715-15.871c0.003-0.17,0.019-0.337,0.019-0.509v-4.272l7.935,4.536c7.33,4.76,15.52,7.14,23.712,7.14
			c8.194,0,16.387-2.382,23.718-7.144l7.927-4.545v4.285C287.474,334.068,287.493,334.277,287.497,334.489z M145.717,485.376h-22.54
			v-70.604c0-11.769,7.317-23.694,17.019-27.737l5.521-2.3V485.376z M166.601,485.376V376.032l19.318-8.049v57.112
			c0,5.767,4.676,10.442,10.442,10.442h25.602c5.766,0,10.442-4.675,10.442-10.442c0-5.767-4.676-10.442-10.442-10.442h-15.16
			v-55.372l0.596-0.249c2.602-1.085,4.966-2.541,7.048-4.284c11.077,10.432,25.755,16.37,41.432,16.37
			c15.643,0,30.306-5.923,41.381-16.324c2.071,1.725,4.418,3.164,6.999,4.239l0.698,0.29v55.329h-15.16
			c-5.766,0-10.442,4.675-10.442,10.442c0,5.767,4.676,10.442,10.442,10.442h25.602c5.766,0,10.442-4.675,10.442-10.442v-57.07
			l19.318,8.049v109.3H166.601z M388.481,485.376h-22.438V384.776l5.419,2.259c9.702,4.042,17.018,15.967,17.018,27.737V485.376z
			 M444.326,485.376h-4.177V358.001h4.177V485.376z M478.294,337.117h-72.115v-35.521h72.115V337.117z"/>
	</g>
</g>
<g>
	<g>
		<path d="M115.735,298.116L96.331,273.34l8.226-25.562c0.953-2.962,0.536-6.195-1.139-8.818l-13.944-21.838l6.174-18.976
			c0.929-2.857,0.584-5.975-0.949-8.558L82.556,169.12l4.924-20.753c0.668-2.812,0.14-5.775-1.458-8.183l-13.382-20.17l9.667-19.546
			c1.255-2.538,1.425-5.477,0.473-8.143l-9.335-26.122l3.914-23.788c0.508-3.093-0.399-6.251-2.471-8.601L63.226,20.589
			c-1.982-2.248-4.836-3.537-7.833-3.537H10.579c-5.766,0-10.442,4.675-10.442,10.442v319.873c0,5.767,4.676,10.442,10.442,10.442
			h96.935c5.766,0,10.442-4.675,10.442-10.442v-42.812C117.956,302.221,117.174,299.954,115.735,298.116z M21.021,37.936h29.658
			l5.268,5.976L52.4,65.479c-0.287,1.748-0.125,3.541,0.47,5.21l8.754,24.494l-10.369,20.965c-1.65,3.337-1.399,7.3,0.659,10.402
			l14.203,21.406l-4.852,20.452c-0.625,2.635-0.203,5.409,1.179,7.739l11.885,20.033l-6.239,19.175
			c-0.966,2.971-0.551,6.217,1.129,8.85l13.954,21.855l-5.062,15.729H21.021V37.936z M97.072,336.925H21.021V282.67H77.11
			l19.962,25.488V336.925z"/>
	</g>
</g>
<g>
	<g>
		<path d="M62.181,302.495H38.164c-5.766,0-10.442,4.675-10.442,10.442c0,5.767,4.676,10.442,10.442,10.442h24.017
			c5.766,0,10.442-4.675,10.442-10.442C72.623,307.17,67.947,302.495,62.181,302.495z"/>
	</g>
</g>
<g>
	<g>
		<path d="M242.413,71.282c-1.105-5.661-6.592-9.359-12.246-8.252c-12.988,2.53-24.943,8.437-34.576,17.081
			c-12.855,11.536-20.564,27.035-21.712,43.642c-0.397,5.754,3.945,10.74,9.699,11.136c0.244,0.017,0.488,0.025,0.729,0.025
			c5.44,0,10.026-4.214,10.409-9.723c0.77-11.158,6.035-21.648,14.827-29.538c6.822-6.123,15.335-10.317,24.619-12.125
			C239.821,82.426,243.517,76.942,242.413,71.282z"/>
	</g>
</g>
</svg>